<svg width="231" height="71" viewBox="0 0 231 71" fill="none" xmlns="http://www.w3.org/2000/svg">
<rect width="231" height="71" fill="#F5F5F5"/>
<rect x="-1223" y="-476" width="1926" height="1308" fill="#EFEFEF"/>
<rect width="590" height="286" transform="translate(-179 -108)" fill="white"/>
<path d="M21.0859 66.0625C20.9661 66.0208 20.7083 66 20.3125 66H15.8438C15.5729 66 15.3542 65.9583 15.1875 65.875C15.026 65.7865 14.9453 65.6276 14.9453 65.3984C14.9453 65.237 14.987 65.1042 15.0703 65C15.2682 65.0521 15.4557 65.0781 15.6328 65.0781C15.8099 65.0781 15.9766 65.0599 16.1328 65.0234C16.2891 64.987 16.4375 64.9219 16.5781 64.8281C16.9115 64.6146 17.0885 64.2891 17.1094 63.8516V55.1641H16.0938C15.3385 55.1641 14.8438 55.2005 14.6094 55.2734C14.3802 55.3411 14.2057 55.4297 14.0859 55.5391C13.9714 55.6484 13.8776 55.7969 13.8047 55.9844C13.6745 56.3073 13.5729 56.8646 13.5 57.6562C13.3854 57.6823 13.2812 57.6953 13.1875 57.6953C12.9792 57.6953 12.8464 57.6406 12.7891 57.5312C12.7318 57.4219 12.6927 57.3099 12.6719 57.1953C12.651 57.0755 12.6354 56.9453 12.625 56.8047C12.6042 56.5234 12.5938 56.224 12.5938 55.9062C12.5938 55.0365 12.6615 54.4844 12.7969 54.25C12.9323 54 13.2031 53.875 13.6094 53.875C13.6875 53.875 13.8021 53.8828 13.9531 53.8984C14.1042 53.9141 14.3229 53.9323 14.6094 53.9531C15.3854 54 16.3151 54.0234 17.3984 54.0234H18.7188C20.2292 54.0234 21.2396 54 21.75 53.9531C22.2604 53.901 22.5781 53.875 22.7031 53.875C22.8281 53.875 22.9427 53.8932 23.0469 53.9297C23.151 53.9661 23.2344 54.0182 23.2969 54.0859C23.3958 54.2005 23.4453 54.3438 23.4453 54.5156C23.4453 54.776 23.4375 54.9844 23.4219 55.1406C23.4062 55.2969 23.388 55.4818 23.3672 55.6953C23.3516 55.9089 23.3281 56.1302 23.2969 56.3594C23.224 56.901 23.1328 57.2734 23.0234 57.4766C22.9193 57.6224 22.7917 57.6953 22.6406 57.6953C22.4948 57.6953 22.3646 57.6823 22.25 57.6562L22.2578 57.1641C22.2578 56.7005 22.2318 56.3359 22.1797 56.0703C22.1276 55.7995 22.0182 55.599 21.8516 55.4688C21.6849 55.3333 21.4453 55.25 21.1328 55.2188C20.8203 55.1823 20.4036 55.1641 19.8828 55.1641H18.9453V64.1562C18.9453 64.5312 19.2448 64.7917 19.8438 64.9375C19.9896 64.9688 20.1276 64.9974 20.2578 65.0234C20.3932 65.0495 20.5234 65.0781 20.6484 65.1094C20.7734 65.1354 20.8776 65.1693 20.9609 65.2109C21.1276 65.2943 21.2109 65.4349 21.2109 65.6328C21.2109 65.8151 21.1693 65.9583 21.0859 66.0625ZM28.9922 66.0391C28.888 66.013 28.7214 66 28.4922 66H26C25.5 66 25.1797 65.9115 25.0391 65.7344C24.9818 65.6667 24.9531 65.5885 24.9531 65.5C24.9531 65.2812 24.9948 65.1198 25.0781 65.0156C25.2031 65.0573 25.3464 65.0781 25.5078 65.0781C25.6693 65.0781 25.7891 65.013 25.8672 64.8828C25.9453 64.7526 25.9818 64.5104 25.9766 64.1562V54.4766C25.9766 54.1172 25.9401 53.8854 25.8672 53.7812C25.7578 53.6146 25.5651 53.5312 25.2891 53.5312H25.1328C25.0859 53.5312 25.0312 53.5391 24.9688 53.5547C24.9115 53.5651 24.862 53.5599 24.8203 53.5391C24.7786 53.513 24.7422 53.4792 24.7109 53.4375C24.6016 53.276 24.7266 53.0573 25.0859 52.7812C25.612 52.3802 26.1484 52.1797 26.6953 52.1797C27.2891 52.1797 27.6224 52.5 27.6953 53.1406C27.7161 53.3333 27.7266 53.5365 27.7266 53.75V58.0078C28.513 57.3464 29.3542 56.8854 30.25 56.625C30.5781 56.526 30.9089 56.4766 31.2422 56.4766C31.5807 56.4766 31.901 56.5208 32.2031 56.6094C32.5104 56.6979 32.7734 56.8411 32.9922 57.0391C33.4714 57.4661 33.7109 58.1172 33.7109 58.9922V64.2344C33.7109 64.6667 33.8568 64.9323 34.1484 65.0312C34.2318 65.0625 34.3307 65.0885 34.4453 65.1094C34.5599 65.1302 34.6615 65.1562 34.75 65.1875C34.8438 65.2135 34.9167 65.2448 34.9688 65.2812C35.0573 65.349 35.1016 65.4583 35.1016 65.6094C35.1016 65.7969 35.0625 65.9401 34.9844 66.0391C34.875 66.013 34.7083 66 34.4844 66H31.9922C31.4922 66 31.1719 65.9115 31.0312 65.7344C30.974 65.6667 30.9453 65.5885 30.9453 65.5C30.9453 65.276 30.9844 65.1146 31.0625 65.0156C31.1927 65.0573 31.3333 65.0781 31.4844 65.0781C31.6354 65.0781 31.75 65.0234 31.8281 64.9141C31.9115 64.8047 31.9583 64.6042 31.9688 64.3125V59.5469C31.9688 58.6615 31.7057 58.1667 31.1797 58.0625C31.0182 58.0312 30.8151 58.0156 30.5703 58.0156C30.3307 58.0156 30.0651 58.0521 29.7734 58.125C29.487 58.1979 29.2161 58.2917 28.9609 58.4062C28.4557 58.6354 28.0443 58.9089 27.7266 59.2266V64.2344C27.7266 64.6667 27.8724 64.9323 28.1641 65.0312C28.2474 65.0625 28.3464 65.0885 28.4609 65.1094C28.5755 65.1302 28.6771 65.1562 28.7656 65.1875C28.8594 65.2135 28.9323 65.2448 28.9844 65.2812C29.0729 65.349 29.1172 65.4583 29.1172 65.6094C29.1172 65.7917 29.0755 65.9349 28.9922 66.0391ZM36.1719 61.7969C36.1719 61.1667 36.237 60.6068 36.3672 60.1172C36.4974 59.6276 36.6719 59.1901 36.8906 58.8047C37.1146 58.4141 37.375 58.0729 37.6719 57.7812C37.974 57.4896 38.2969 57.2474 38.6406 57.0547C39.3177 56.6693 39.9844 56.4766 40.6406 56.4766C41.2969 56.4766 41.8229 56.5938 42.2188 56.8281C42.6146 57.0573 42.9375 57.3646 43.1875 57.75C43.651 58.4844 43.8828 59.4609 43.8828 60.6797C43.8828 61.1328 43.6927 61.3646 43.3125 61.375L37.8594 61.4922C37.8906 62.6224 38.1823 63.4583 38.7344 64C39.2031 64.4583 39.8099 64.6875 40.5547 64.6875C41.6641 64.6875 42.5651 64.4557 43.2578 63.9922C43.3047 63.9922 43.362 64.0312 43.4297 64.1094C43.5599 64.2656 43.625 64.401 43.625 64.5156C43.625 64.7656 43.3125 65.0859 42.6875 65.4766C41.9688 65.9245 41.1302 66.1484 40.1719 66.1484C38.9219 66.1484 37.9401 65.75 37.2266 64.9531C36.5234 64.1719 36.1719 63.1198 36.1719 61.7969ZM37.9062 60.4844C39.4062 60.4115 40.7786 60.3151 42.0234 60.1953C42.0807 58.5391 41.5078 57.7109 40.3047 57.7109C39.6328 57.7109 39.0833 57.9714 38.6562 58.4922C38.2656 58.9714 38.0156 59.6354 37.9062 60.4844ZM58.6875 65.0781C58.9062 65.1146 59.0703 65.1328 59.1797 65.1328C59.2891 65.1328 59.3958 65.1224 59.5 65.1016C59.6094 65.0755 59.7057 65.0365 59.7891 64.9844C59.9766 64.8698 60.0703 64.6901 60.0703 64.4453C60.0703 64.2422 60.0078 64.0156 59.8828 63.7656L59.1484 61.9453H54.2031L53.3281 64.1641C53.2448 64.3672 53.2031 64.5156 53.2031 64.6094C53.2031 64.6979 53.2161 64.7656 53.2422 64.8125C53.2734 64.8542 53.3177 64.8906 53.375 64.9219C53.4375 64.9531 53.513 64.9792 53.6016 65L53.9219 65.0859C54.2656 65.1432 54.487 65.1953 54.5859 65.2422C54.7891 65.3411 54.8906 65.487 54.8906 65.6797C54.8906 65.8203 54.8516 65.9401 54.7734 66.0391C54.6745 66.013 54.5833 66 54.5 66H51.3203C50.6276 66 50.2812 65.8099 50.2812 65.4297C50.2812 65.2526 50.3203 65.1094 50.3984 65C50.5911 65.0521 50.7526 65.0781 50.8828 65.0781C51.0182 65.0781 51.1302 65.0573 51.2188 65.0156C51.3125 64.974 51.401 64.9036 51.4844 64.8047C51.625 64.6328 51.7891 64.2891 51.9766 63.7734L55.8359 54.4297C55.9453 54.1797 56.2552 54.0078 56.7656 53.9141C56.9062 53.888 57.0547 53.875 57.2109 53.875C57.5286 53.875 57.724 53.9609 57.7969 54.1328L58.5781 56.0859C60.0833 59.638 60.9531 61.7109 61.1875 62.3047L61.8906 64.1484C62.0312 64.5495 62.1484 64.7969 62.2422 64.8906C62.3359 64.9844 62.4375 65.0495 62.5469 65.0859C62.6562 65.1224 62.7682 65.1536 62.8828 65.1797C63.0026 65.2005 63.1068 65.2292 63.1953 65.2656C63.3932 65.3542 63.4922 65.4896 63.4922 65.6719C63.4922 65.8125 63.4531 65.9323 63.375 66.0312C63.276 66.0052 63.1875 65.9922 63.1094 65.9922H59.3828C59.1172 65.9922 58.9089 65.9609 58.7578 65.8984C58.612 65.8307 58.5391 65.7292 58.5391 65.5938C58.5391 65.3594 58.5885 65.1875 58.6875 65.0781ZM58.6953 60.8359L56.6484 55.7734L54.6406 60.8359H58.6953ZM68.5234 66.0391C68.4141 66.013 68.2474 66 68.0234 66H65.375C64.875 66 64.5547 65.9115 64.4141 65.7344C64.3568 65.6667 64.3281 65.5885 64.3281 65.5C64.3281 65.2812 64.3698 65.1198 64.4531 65.0156C64.5781 65.0573 64.6927 65.0781 64.7969 65.0781C64.9062 65.0781 64.9974 65.0651 65.0703 65.0391C65.1432 65.0078 65.2005 64.9583 65.2422 64.8906C65.3151 64.7656 65.3516 64.5208 65.3516 64.1562V59.0469C65.3516 58.5573 65.2604 58.2526 65.0781 58.1328C65.0052 58.0859 64.9089 58.0625 64.7891 58.0625C64.6693 58.0625 64.5729 58.0807 64.5 58.1172C64.4323 58.1536 64.375 58.1797 64.3281 58.1953C64.2865 58.2109 64.25 58.2109 64.2188 58.1953C64.1875 58.1745 64.1562 58.1458 64.125 58.1094C64.0469 58.0156 64.0078 57.9271 64.0078 57.8438C64.0078 57.7552 64.0391 57.6615 64.1016 57.5625C64.1693 57.4583 64.276 57.3411 64.4219 57.2109C64.5677 57.0755 64.7344 56.9531 64.9219 56.8438C65.3438 56.599 65.7656 56.4766 66.1875 56.4766C66.6667 56.4766 66.9505 56.7891 67.0391 57.4141C67.0651 57.5964 67.0807 57.7865 67.0859 57.9844C67.8464 57.3125 68.6302 56.8516 69.4375 56.6016C69.7083 56.5182 69.9531 56.4766 70.1719 56.4766C70.3958 56.4766 70.5781 56.5078 70.7188 56.5703C70.8646 56.6328 70.9792 56.7188 71.0625 56.8281C71.2188 57.0417 71.2969 57.3151 71.2969 57.6484C71.2969 57.9818 71.2812 58.2474 71.25 58.4453C71.2188 58.6432 71.1797 58.8177 71.1328 58.9688C71.0391 59.276 70.9505 59.4714 70.8672 59.5547C70.7214 59.7057 70.526 59.7812 70.2812 59.7812C70.0312 59.7812 69.9062 59.7083 69.9062 59.5625C69.9062 59.0052 69.8828 58.6484 69.8359 58.4922C69.7474 58.2057 69.5807 58.0625 69.3359 58.0625C69.0911 58.0625 68.8698 58.0911 68.6719 58.1484C68.474 58.2005 68.2812 58.2734 68.0938 58.3672C67.7135 58.5547 67.3802 58.7969 67.0938 59.0938V64.2891C67.1094 64.7005 67.2891 64.9505 67.6328 65.0391C67.7318 65.0651 67.8438 65.0885 67.9688 65.1094C68.0938 65.1302 68.2005 65.1562 68.2891 65.1875C68.3828 65.2135 68.4557 65.2448 68.5078 65.2812C68.5964 65.349 68.6406 65.4583 68.6406 65.6094C68.6406 65.7969 68.6016 65.9401 68.5234 66.0391ZM75.1094 60.6719L75.1016 62.7266C75.1016 63.5859 75.1458 64.1042 75.2344 64.2812C75.3229 64.4531 75.4271 64.5573 75.5469 64.5938C75.6667 64.625 75.8203 64.6406 76.0078 64.6406C76.1953 64.6406 76.3646 64.6276 76.5156 64.6016C76.6719 64.5703 76.8177 64.5312 76.9531 64.4844C77.0885 64.4375 77.2188 64.3854 77.3438 64.3281L77.7266 64.1641C77.8151 64.1328 77.9141 64.224 78.0234 64.4375C78.0547 64.4948 78.0703 64.5625 78.0703 64.6406C78.0703 64.7135 78.0391 64.8099 77.9766 64.9297C77.9141 65.0495 77.7917 65.1875 77.6094 65.3438C77.4323 65.4948 77.224 65.6302 76.9844 65.75C76.4635 66.0156 75.9948 66.1484 75.5781 66.1484C75.1667 66.1484 74.8307 66.125 74.5703 66.0781C74.3099 66.0312 74.0885 65.9375 73.9062 65.7969C73.5312 65.5052 73.3438 64.9714 73.3438 64.1953V58.0469H72.5703C72.4089 58.0469 72.2917 57.9948 72.2188 57.8906C72.0938 57.7292 72.0312 57.5938 72.0312 57.4844C72.0312 57.3021 72.0755 57.2005 72.1641 57.1797C72.9922 57.0391 73.5781 56.4245 73.9219 55.3359C74.0208 55.0078 74.099 54.6198 74.1562 54.1719C74.4062 54.1302 74.5938 54.1094 74.7188 54.1094C74.849 54.1094 74.9609 54.1745 75.0547 54.3047C75.1484 54.4349 75.1927 54.5859 75.1875 54.7578C75.1875 54.9297 75.1849 55.0911 75.1797 55.2422C75.1745 55.3932 75.1693 55.5573 75.1641 55.7344L75.1328 56.8281H77.8359C77.9036 56.9479 77.9375 57.0755 77.9375 57.2109V57.4531C77.9375 57.6719 77.8203 57.8516 77.5859 57.9922C77.3516 58.1276 77.0911 58.1953 76.8047 58.1953C76.5234 58.1953 76.3203 58.1927 76.1953 58.1875C76.0755 58.1771 75.9583 58.1667 75.8438 58.1562L75.5 58.1094C75.3802 58.099 75.2526 58.0885 75.1172 58.0781V58.1641L75.1094 60.6719ZM84.9141 61.6875C84.9141 61.0521 84.9766 60.4818 85.1016 59.9766C85.2266 59.4714 85.3984 59.026 85.6172 58.6406C85.8359 58.2552 86.0938 57.9271 86.3906 57.6562C86.6875 57.3802 87.0052 57.1562 87.3438 56.9844C88.0052 56.6458 88.7318 56.4766 89.5234 56.4766C90.5391 56.4766 91.401 56.8464 92.1094 57.5859C92.8958 58.3984 93.2891 59.4714 93.2891 60.8047C93.2891 62.5547 92.8125 63.9167 91.8594 64.8906C91.0312 65.7292 90.0391 66.1484 88.8828 66.1484C87.6745 66.1484 86.7057 65.724 85.9766 64.875C85.2682 64.0573 84.9141 62.9948 84.9141 61.6875ZM89.3438 64.875C89.6927 64.875 90.0052 64.7943 90.2812 64.6328C90.5573 64.4661 90.7917 64.2396 90.9844 63.9531C91.3698 63.3594 91.5625 62.5885 91.5625 61.6406C91.5625 60.599 91.3594 59.7135 90.9531 58.9844C90.4948 58.1458 89.8359 57.7266 88.9766 57.7266C88.2839 57.7266 87.7292 57.9922 87.3125 58.5234C86.8698 59.0859 86.6484 59.8724 86.6484 60.8828C86.6484 62.1484 86.9271 63.1484 87.4844 63.8828C87.9844 64.5443 88.6042 64.875 89.3438 64.875ZM96.125 66C95.3281 66 94.9297 65.8177 94.9297 65.4531C94.9297 65.2604 94.9688 65.1146 95.0469 65.0156C95.1719 65.0573 95.2891 65.0781 95.3984 65.0781C95.8776 65.0781 96.112 64.7708 96.1016 64.1562V57.9766H95.9531C95.3906 57.9766 95.026 57.9844 94.8594 58C94.7708 57.7969 94.7266 57.6068 94.7266 57.4297C94.7266 57.2526 94.7943 57.1094 94.9297 57C95.0651 56.8854 95.2396 56.8281 95.4531 56.8281H96.1016V56.5469C96.1016 54.599 96.7734 53.276 98.1172 52.5781C98.6276 52.3125 99.1641 52.1797 99.7266 52.1797C100.289 52.1797 100.695 52.3073 100.945 52.5625C101.195 52.8177 101.32 53.1562 101.32 53.5781C101.32 54.0521 101.154 54.4193 100.82 54.6797C100.721 54.7474 100.573 54.7812 100.375 54.7812C100.177 54.7812 100.078 54.7318 100.078 54.6328C100.078 53.8672 99.7917 53.4844 99.2188 53.4844C98.8385 53.4844 98.5547 53.5729 98.3672 53.75C98.0078 54.099 97.8281 54.6276 97.8281 55.3359C97.8281 55.4453 97.8333 55.5625 97.8438 55.6875V56.8281H100.32C100.388 56.9479 100.422 57.1016 100.422 57.2891C100.422 57.4766 100.401 57.6146 100.359 57.7031C100.323 57.7917 100.25 57.8724 100.141 57.9453C99.901 58.112 99.5885 58.1953 99.2031 58.1953C98.8229 58.1953 98.3698 58.1641 97.8438 58.1016V64.375C97.8438 64.776 98.099 65.0052 98.6094 65.0625C99.0573 65.1094 99.3281 65.1667 99.4219 65.2344C99.5521 65.3333 99.6172 65.4583 99.6172 65.6094C99.6172 65.7917 99.5755 65.9349 99.4922 66.0391C99.388 66.013 99.2214 66 98.9922 66H96.125ZM115.867 62.5234C116.008 62.4036 116.156 62.3438 116.312 62.3438C116.552 62.3438 116.69 62.3776 116.727 62.4453C116.93 62.8516 117.031 63.5234 117.031 64.4609C117.031 65.112 116.958 65.5833 116.812 65.875C116.766 65.9583 116.716 66 116.664 66H108.039C107.419 66 107.109 65.8151 107.109 65.4453C107.109 65.2474 107.151 65.0964 107.234 64.9922C107.411 65.0443 107.583 65.0703 107.75 65.0703C107.917 65.0703 108.06 65.0573 108.18 65.0312C108.299 65.0052 108.411 64.9505 108.516 64.8672C108.766 64.6745 108.891 64.349 108.891 63.8906V55.9766C108.891 55.5234 108.708 55.2344 108.344 55.1094C108.24 55.0729 108.13 55.0417 108.016 55.0156C107.906 54.9844 107.799 54.9557 107.695 54.9297C107.596 54.8984 107.508 54.8646 107.43 54.8281C107.253 54.7344 107.164 54.6068 107.164 54.4453C107.164 54.2318 107.206 54.0781 107.289 53.9844C107.383 54.0104 107.477 54.0234 107.57 54.0234H115.562C116.042 54.0234 116.341 54.0677 116.461 54.1562C116.68 54.3125 116.789 54.6562 116.789 55.1875C116.789 55.6979 116.745 56.1146 116.656 56.4375C116.573 56.7604 116.513 56.9531 116.477 57.0156C116.424 57.1094 116.323 57.1562 116.172 57.1562C115.953 57.1562 115.802 57.1302 115.719 57.0781C115.641 57.0208 115.599 56.9792 115.594 56.9531C115.526 56.2083 115.409 55.7344 115.242 55.5312C115.076 55.3229 114.878 55.1823 114.648 55.1094C114.424 55.0312 114.13 54.9922 113.766 54.9922H112.023C111.471 54.9922 111.133 55.0469 111.008 55.1562C110.888 55.2656 110.812 55.3932 110.781 55.5391C110.75 55.6797 110.734 55.862 110.734 56.0859V59.4141L111.195 59.4219C112.346 59.4219 113.414 59.3203 114.398 59.1172C114.471 59.1536 114.536 59.2578 114.594 59.4297C114.651 59.5964 114.68 59.763 114.68 59.9297C114.68 60.2109 114.633 60.4557 114.539 60.6641C114.195 60.6953 113.799 60.7109 113.352 60.7109C112.904 60.7109 112.031 60.638 110.734 60.4922V64.0156C110.734 64.4062 110.839 64.6693 111.047 64.8047C111.224 64.9193 111.542 64.9766 112 64.9766L113.18 64.9453C114.32 64.9036 115.062 64.7448 115.406 64.4688C115.599 64.3125 115.727 64.1068 115.789 63.8516C115.852 63.5964 115.883 63.3411 115.883 63.0859C115.883 62.8255 115.878 62.638 115.867 62.5234ZM122.75 66.0391C122.646 66.013 122.479 66 122.25 66H119.758C119.258 66 118.938 65.9115 118.797 65.7344C118.74 65.6667 118.711 65.5885 118.711 65.5C118.711 65.2812 118.753 65.1198 118.836 65.0156C118.961 65.0573 119.102 65.0781 119.258 65.0781C119.419 65.0781 119.539 65.013 119.617 64.8828C119.701 64.7526 119.74 64.5104 119.734 64.1562V59.0469C119.734 58.5573 119.643 58.2526 119.461 58.1328C119.388 58.0859 119.292 58.0625 119.172 58.0625C119.052 58.0625 118.956 58.0807 118.883 58.1172C118.815 58.1536 118.758 58.1797 118.711 58.1953C118.669 58.2109 118.633 58.2109 118.602 58.1953C118.57 58.1745 118.539 58.1458 118.508 58.1094C118.43 58.026 118.391 57.9401 118.391 57.8516C118.391 57.7578 118.422 57.6615 118.484 57.5625C118.552 57.4583 118.659 57.3411 118.805 57.2109C118.951 57.0755 119.117 56.9531 119.305 56.8438C119.727 56.599 120.148 56.4766 120.57 56.4766C121.055 56.4766 121.341 56.7969 121.43 57.4375C121.456 57.625 121.471 57.8177 121.477 58.0156C122.253 57.3646 123.096 56.901 124.008 56.625C124.336 56.526 124.667 56.4766 125 56.4766C125.339 56.4766 125.659 56.5208 125.961 56.6094C126.268 56.6979 126.534 56.8411 126.758 57.0391C127.232 57.4557 127.469 58.1068 127.469 58.9922V64.2891C127.484 64.6953 127.635 64.9453 127.922 65.0391C128 65.0651 128.096 65.0885 128.211 65.1094C128.326 65.1302 128.427 65.1562 128.516 65.1875C128.609 65.2135 128.682 65.2448 128.734 65.2812C128.823 65.349 128.867 65.4583 128.867 65.6094C128.867 65.7917 128.826 65.9349 128.742 66.0391C128.638 66.013 128.471 66 128.242 66H125.75C125.25 66 124.93 65.9115 124.789 65.7344C124.732 65.6667 124.703 65.5885 124.703 65.5C124.703 65.2812 124.745 65.1198 124.828 65.0156C124.953 65.0573 125.068 65.0781 125.172 65.0781C125.281 65.0781 125.372 65.0651 125.445 65.0391C125.518 65.0078 125.576 64.9583 125.617 64.8906C125.69 64.7656 125.727 64.5208 125.727 64.1562V59.5469C125.727 58.6615 125.464 58.1667 124.938 58.0625C124.776 58.0312 124.573 58.0156 124.328 58.0156C124.089 58.0156 123.823 58.0521 123.531 58.125C123.24 58.1979 122.966 58.2917 122.711 58.4062C122.221 58.625 121.81 58.901 121.477 59.2344V64.2891C121.492 64.6953 121.641 64.9453 121.922 65.0391C122.005 65.0651 122.102 65.0885 122.211 65.1094C122.326 65.1302 122.43 65.1562 122.523 65.1875C122.617 65.2135 122.69 65.2448 122.742 65.2812C122.831 65.349 122.875 65.4583 122.875 65.6094C122.875 65.7917 122.833 65.9349 122.75 66.0391ZM133.055 62.8828C132.857 63.0807 132.758 63.2734 132.758 63.4609C132.758 63.6484 132.812 63.7917 132.922 63.8906C133.031 63.9844 133.174 64.0573 133.352 64.1094C133.622 64.1823 133.922 64.2188 134.25 64.2188H134.922C136.62 64.2188 137.737 64.625 138.273 65.4375C138.471 65.7396 138.57 66.1068 138.57 66.5391C138.57 66.9766 138.497 67.3594 138.352 67.6875C138.206 68.0156 138.01 68.3047 137.766 68.5547C137.521 68.8099 137.237 69.0286 136.914 69.2109C136.591 69.3932 136.25 69.5417 135.891 69.6562C135.188 69.8906 134.531 70.0078 133.922 70.0078C133.312 70.0078 132.779 69.9583 132.32 69.8594C131.867 69.7656 131.464 69.6172 131.109 69.4141C130.344 68.9714 129.961 68.3359 129.961 67.5078C129.961 66.8047 130.312 66.1745 131.016 65.6172C131.229 65.4505 131.456 65.3021 131.695 65.1719C131.414 64.9375 131.273 64.6224 131.273 64.2266C131.273 63.6068 131.581 63.0859 132.195 62.6641C131.294 62.3203 130.703 61.7057 130.422 60.8203C130.333 60.5286 130.289 60.2031 130.289 59.8438C130.289 59.4844 130.344 59.1458 130.453 58.8281C130.568 58.5104 130.721 58.2266 130.914 57.9766C131.112 57.7266 131.341 57.5078 131.602 57.3203C131.862 57.1328 132.141 56.9766 132.438 56.8516C133.021 56.6016 133.633 56.4766 134.273 56.4766C135.331 56.4766 136.174 56.7422 136.805 57.2734C136.872 57.013 136.906 56.7448 136.906 56.4688C136.906 56.1927 136.846 55.9688 136.727 55.7969C136.93 55.5573 137.232 55.4375 137.633 55.4375C137.862 55.4375 138.044 55.5 138.18 55.625C138.44 55.849 138.57 56.0729 138.57 56.2969C138.57 56.5156 138.536 56.7083 138.469 56.875C138.401 57.0365 138.312 57.1901 138.203 57.3359C138.01 57.6068 137.76 57.8516 137.453 58.0703C137.661 58.4609 137.766 58.9141 137.766 59.4297C137.766 59.9401 137.651 60.4167 137.422 60.8594C137.198 61.2969 136.896 61.6693 136.516 61.9766C135.734 62.6068 134.771 62.9219 133.625 62.9219C133.469 62.9219 133.279 62.9089 133.055 62.8828ZM132.672 61.2188C132.859 61.401 133.073 61.5365 133.312 61.625C133.552 61.7135 133.807 61.7578 134.078 61.7578C134.354 61.7578 134.612 61.7188 134.852 61.6406C135.096 61.5625 135.307 61.4479 135.484 61.2969C135.865 60.974 136.055 60.5156 136.055 59.9219C136.055 59.2656 135.885 58.7188 135.547 58.2812C135.161 57.7969 134.62 57.5547 133.922 57.5547C133.042 57.5547 132.471 57.9141 132.211 58.6328C132.122 58.8776 132.078 59.1797 132.078 59.5391C132.078 59.8984 132.13 60.2214 132.234 60.5078C132.344 60.7943 132.49 61.0312 132.672 61.2188ZM132.68 65.6328C131.997 66.0964 131.656 66.6224 131.656 67.2109C131.656 67.7214 131.953 68.1094 132.547 68.375C133.021 68.5938 133.604 68.7031 134.297 68.7031C134.927 68.7031 135.51 68.599 136.047 68.3906C136.75 68.1146 137.102 67.6641 137.102 67.0391C137.102 66.2005 136.422 65.7812 135.062 65.7812L134.367 65.7891C133.659 65.7891 133.096 65.737 132.68 65.6328ZM141.633 55.0234C141.456 55.0234 141.292 54.9974 141.141 54.9453C140.995 54.888 140.867 54.8073 140.758 54.7031C140.529 54.4844 140.414 54.1901 140.414 53.8203C140.414 53.4661 140.549 53.1667 140.82 52.9219C141.081 52.6771 141.393 52.5547 141.758 52.5547C142.122 52.5547 142.414 52.6641 142.633 52.8828C142.852 53.1016 142.961 53.3984 142.961 53.7734C142.961 54.1276 142.831 54.4271 142.57 54.6719C142.315 54.9062 142.003 55.0234 141.633 55.0234ZM141.156 66C140.354 66 139.953 65.8177 139.953 65.4531C139.953 65.2656 139.995 65.1198 140.078 65.0156C140.203 65.0573 140.318 65.0781 140.422 65.0781C140.906 65.0781 141.143 64.7708 141.133 64.1562V58.9219C141.133 58.5573 141.081 58.3047 140.977 58.1641C140.878 58.0182 140.698 57.9453 140.438 57.9453C140.245 57.9453 140.07 57.9688 139.914 58.0156C139.82 58.026 139.753 57.9531 139.711 57.7969C139.674 57.6562 139.695 57.5339 139.773 57.4297C139.852 57.3203 139.971 57.2083 140.133 57.0938C140.299 56.974 140.482 56.8698 140.68 56.7812C141.107 56.5781 141.464 56.4766 141.75 56.4766C142.036 56.4766 142.247 56.5182 142.383 56.6016C142.523 56.6849 142.63 56.7969 142.703 56.9375C142.818 57.1667 142.875 57.5365 142.875 58.0469V64.2891C142.891 64.7005 143.039 64.9505 143.32 65.0391C143.398 65.0651 143.495 65.0885 143.609 65.1094C143.724 65.1302 143.826 65.1562 143.914 65.1875C144.008 65.2135 144.081 65.2448 144.133 65.2812C144.221 65.349 144.266 65.4583 144.266 65.6094C144.266 65.7969 144.227 65.9401 144.148 66.0391C144.039 66.013 143.872 66 143.648 66H141.156ZM149.625 66.0391C149.521 66.013 149.354 66 149.125 66H146.633C146.133 66 145.812 65.9115 145.672 65.7344C145.615 65.6667 145.586 65.5885 145.586 65.5C145.586 65.2812 145.628 65.1198 145.711 65.0156C145.836 65.0573 145.977 65.0781 146.133 65.0781C146.294 65.0781 146.414 65.013 146.492 64.8828C146.576 64.7526 146.615 64.5104 146.609 64.1562V59.0469C146.609 58.5573 146.518 58.2526 146.336 58.1328C146.263 58.0859 146.167 58.0625 146.047 58.0625C145.927 58.0625 145.831 58.0807 145.758 58.1172C145.69 58.1536 145.633 58.1797 145.586 58.1953C145.544 58.2109 145.508 58.2109 145.477 58.1953C145.445 58.1745 145.414 58.1458 145.383 58.1094C145.305 58.026 145.266 57.9401 145.266 57.8516C145.266 57.7578 145.297 57.6615 145.359 57.5625C145.427 57.4583 145.534 57.3411 145.68 57.2109C145.826 57.0755 145.992 56.9531 146.18 56.8438C146.602 56.599 147.023 56.4766 147.445 56.4766C147.93 56.4766 148.216 56.7969 148.305 57.4375C148.331 57.625 148.346 57.8177 148.352 58.0156C149.128 57.3646 149.971 56.901 150.883 56.625C151.211 56.526 151.542 56.4766 151.875 56.4766C152.214 56.4766 152.534 56.5208 152.836 56.6094C153.143 56.6979 153.409 56.8411 153.633 57.0391C154.107 57.4557 154.344 58.1068 154.344 58.9922V64.2891C154.359 64.6953 154.51 64.9453 154.797 65.0391C154.875 65.0651 154.971 65.0885 155.086 65.1094C155.201 65.1302 155.302 65.1562 155.391 65.1875C155.484 65.2135 155.557 65.2448 155.609 65.2812C155.698 65.349 155.742 65.4583 155.742 65.6094C155.742 65.7917 155.701 65.9349 155.617 66.0391C155.513 66.013 155.346 66 155.117 66H152.625C152.125 66 151.805 65.9115 151.664 65.7344C151.607 65.6667 151.578 65.5885 151.578 65.5C151.578 65.2812 151.62 65.1198 151.703 65.0156C151.828 65.0573 151.943 65.0781 152.047 65.0781C152.156 65.0781 152.247 65.0651 152.32 65.0391C152.393 65.0078 152.451 64.9583 152.492 64.8906C152.565 64.7656 152.602 64.5208 152.602 64.1562V59.5469C152.602 58.6615 152.339 58.1667 151.812 58.0625C151.651 58.0312 151.448 58.0156 151.203 58.0156C150.964 58.0156 150.698 58.0521 150.406 58.125C150.115 58.1979 149.841 58.2917 149.586 58.4062C149.096 58.625 148.685 58.901 148.352 59.2344V64.2891C148.367 64.6953 148.516 64.9453 148.797 65.0391C148.88 65.0651 148.977 65.0885 149.086 65.1094C149.201 65.1302 149.305 65.1562 149.398 65.1875C149.492 65.2135 149.565 65.2448 149.617 65.2812C149.706 65.349 149.75 65.4583 149.75 65.6094C149.75 65.7917 149.708 65.9349 149.625 66.0391ZM156.922 61.7969C156.922 61.1667 156.987 60.6068 157.117 60.1172C157.247 59.6276 157.422 59.1901 157.641 58.8047C157.865 58.4141 158.125 58.0729 158.422 57.7812C158.724 57.4896 159.047 57.2474 159.391 57.0547C160.068 56.6693 160.734 56.4766 161.391 56.4766C162.047 56.4766 162.573 56.5938 162.969 56.8281C163.365 57.0573 163.688 57.3646 163.938 57.75C164.401 58.4844 164.633 59.4609 164.633 60.6797C164.633 61.1328 164.443 61.3646 164.062 61.375L158.609 61.4922C158.641 62.6224 158.932 63.4583 159.484 64C159.953 64.4583 160.56 64.6875 161.305 64.6875C162.414 64.6875 163.315 64.4557 164.008 63.9922C164.055 63.9922 164.112 64.0312 164.18 64.1094C164.31 64.2656 164.375 64.401 164.375 64.5156C164.375 64.7656 164.062 65.0859 163.438 65.4766C162.719 65.9245 161.88 66.1484 160.922 66.1484C159.672 66.1484 158.69 65.75 157.977 64.9531C157.273 64.1719 156.922 63.1198 156.922 61.7969ZM158.656 60.4844C160.156 60.4115 161.529 60.3151 162.773 60.1953C162.831 58.5391 162.258 57.7109 161.055 57.7109C160.383 57.7109 159.833 57.9714 159.406 58.4922C159.016 58.9714 158.766 59.6354 158.656 60.4844ZM166.375 61.7969C166.375 61.1667 166.44 60.6068 166.57 60.1172C166.701 59.6276 166.875 59.1901 167.094 58.8047C167.318 58.4141 167.578 58.0729 167.875 57.7812C168.177 57.4896 168.5 57.2474 168.844 57.0547C169.521 56.6693 170.188 56.4766 170.844 56.4766C171.5 56.4766 172.026 56.5938 172.422 56.8281C172.818 57.0573 173.141 57.3646 173.391 57.75C173.854 58.4844 174.086 59.4609 174.086 60.6797C174.086 61.1328 173.896 61.3646 173.516 61.375L168.062 61.4922C168.094 62.6224 168.385 63.4583 168.938 64C169.406 64.4583 170.013 64.6875 170.758 64.6875C171.867 64.6875 172.768 64.4557 173.461 63.9922C173.508 63.9922 173.565 64.0312 173.633 64.1094C173.763 64.2656 173.828 64.401 173.828 64.5156C173.828 64.7656 173.516 65.0859 172.891 65.4766C172.172 65.9245 171.333 66.1484 170.375 66.1484C169.125 66.1484 168.143 65.75 167.43 64.9531C166.727 64.1719 166.375 63.1198 166.375 61.7969ZM168.109 60.4844C169.609 60.4115 170.982 60.3151 172.227 60.1953C172.284 58.5391 171.711 57.7109 170.508 57.7109C169.836 57.7109 169.286 57.9714 168.859 58.4922C168.469 58.9714 168.219 59.6354 168.109 60.4844ZM180.148 66.0391C180.039 66.013 179.872 66 179.648 66H177C176.5 66 176.18 65.9115 176.039 65.7344C175.982 65.6667 175.953 65.5885 175.953 65.5C175.953 65.2812 175.995 65.1198 176.078 65.0156C176.203 65.0573 176.318 65.0781 176.422 65.0781C176.531 65.0781 176.622 65.0651 176.695 65.0391C176.768 65.0078 176.826 64.9583 176.867 64.8906C176.94 64.7656 176.977 64.5208 176.977 64.1562V59.0469C176.977 58.5573 176.885 58.2526 176.703 58.1328C176.63 58.0859 176.534 58.0625 176.414 58.0625C176.294 58.0625 176.198 58.0807 176.125 58.1172C176.057 58.1536 176 58.1797 175.953 58.1953C175.911 58.2109 175.875 58.2109 175.844 58.1953C175.812 58.1745 175.781 58.1458 175.75 58.1094C175.672 58.0156 175.633 57.9271 175.633 57.8438C175.633 57.7552 175.664 57.6615 175.727 57.5625C175.794 57.4583 175.901 57.3411 176.047 57.2109C176.193 57.0755 176.359 56.9531 176.547 56.8438C176.969 56.599 177.391 56.4766 177.812 56.4766C178.292 56.4766 178.576 56.7891 178.664 57.4141C178.69 57.5964 178.706 57.7865 178.711 57.9844C179.471 57.3125 180.255 56.8516 181.062 56.6016C181.333 56.5182 181.578 56.4766 181.797 56.4766C182.021 56.4766 182.203 56.5078 182.344 56.5703C182.49 56.6328 182.604 56.7188 182.688 56.8281C182.844 57.0417 182.922 57.3151 182.922 57.6484C182.922 57.9818 182.906 58.2474 182.875 58.4453C182.844 58.6432 182.805 58.8177 182.758 58.9688C182.664 59.276 182.576 59.4714 182.492 59.5547C182.346 59.7057 182.151 59.7812 181.906 59.7812C181.656 59.7812 181.531 59.7083 181.531 59.5625C181.531 59.0052 181.508 58.6484 181.461 58.4922C181.372 58.2057 181.206 58.0625 180.961 58.0625C180.716 58.0625 180.495 58.0911 180.297 58.1484C180.099 58.2005 179.906 58.2734 179.719 58.3672C179.339 58.5547 179.005 58.7969 178.719 59.0938V64.2891C178.734 64.7005 178.914 64.9505 179.258 65.0391C179.357 65.0651 179.469 65.0885 179.594 65.1094C179.719 65.1302 179.826 65.1562 179.914 65.1875C180.008 65.2135 180.081 65.2448 180.133 65.2812C180.221 65.349 180.266 65.4583 180.266 65.6094C180.266 65.7969 180.227 65.9401 180.148 66.0391ZM185.867 55.0234C185.69 55.0234 185.526 54.9974 185.375 54.9453C185.229 54.888 185.102 54.8073 184.992 54.7031C184.763 54.4844 184.648 54.1901 184.648 53.8203C184.648 53.4661 184.784 53.1667 185.055 52.9219C185.315 52.6771 185.628 52.5547 185.992 52.5547C186.357 52.5547 186.648 52.6641 186.867 52.8828C187.086 53.1016 187.195 53.3984 187.195 53.7734C187.195 54.1276 187.065 54.4271 186.805 54.6719C186.549 54.9062 186.237 55.0234 185.867 55.0234ZM185.391 66C184.589 66 184.188 65.8177 184.188 65.4531C184.188 65.2656 184.229 65.1198 184.312 65.0156C184.438 65.0573 184.552 65.0781 184.656 65.0781C185.141 65.0781 185.378 64.7708 185.367 64.1562V58.9219C185.367 58.5573 185.315 58.3047 185.211 58.1641C185.112 58.0182 184.932 57.9453 184.672 57.9453C184.479 57.9453 184.305 57.9688 184.148 58.0156C184.055 58.026 183.987 57.9531 183.945 57.7969C183.909 57.6562 183.93 57.5339 184.008 57.4297C184.086 57.3203 184.206 57.2083 184.367 57.0938C184.534 56.974 184.716 56.8698 184.914 56.7812C185.341 56.5781 185.698 56.4766 185.984 56.4766C186.271 56.4766 186.482 56.5182 186.617 56.6016C186.758 56.6849 186.865 56.7969 186.938 56.9375C187.052 57.1667 187.109 57.5365 187.109 58.0469V64.2891C187.125 64.7005 187.273 64.9505 187.555 65.0391C187.633 65.0651 187.729 65.0885 187.844 65.1094C187.958 65.1302 188.06 65.1562 188.148 65.1875C188.242 65.2135 188.315 65.2448 188.367 65.2812C188.456 65.349 188.5 65.4583 188.5 65.6094C188.5 65.7969 188.461 65.9401 188.383 66.0391C188.273 66.013 188.107 66 187.883 66H185.391ZM193.859 66.0391C193.755 66.013 193.589 66 193.359 66H190.867C190.367 66 190.047 65.9115 189.906 65.7344C189.849 65.6667 189.82 65.5885 189.82 65.5C189.82 65.2812 189.862 65.1198 189.945 65.0156C190.07 65.0573 190.211 65.0781 190.367 65.0781C190.529 65.0781 190.648 65.013 190.727 64.8828C190.81 64.7526 190.849 64.5104 190.844 64.1562V59.0469C190.844 58.5573 190.753 58.2526 190.57 58.1328C190.497 58.0859 190.401 58.0625 190.281 58.0625C190.161 58.0625 190.065 58.0807 189.992 58.1172C189.924 58.1536 189.867 58.1797 189.82 58.1953C189.779 58.2109 189.742 58.2109 189.711 58.1953C189.68 58.1745 189.648 58.1458 189.617 58.1094C189.539 58.026 189.5 57.9401 189.5 57.8516C189.5 57.7578 189.531 57.6615 189.594 57.5625C189.661 57.4583 189.768 57.3411 189.914 57.2109C190.06 57.0755 190.227 56.9531 190.414 56.8438C190.836 56.599 191.258 56.4766 191.68 56.4766C192.164 56.4766 192.451 56.7969 192.539 57.4375C192.565 57.625 192.581 57.8177 192.586 58.0156C193.362 57.3646 194.206 56.901 195.117 56.625C195.445 56.526 195.776 56.4766 196.109 56.4766C196.448 56.4766 196.768 56.5208 197.07 56.6094C197.378 56.6979 197.643 56.8411 197.867 57.0391C198.341 57.4557 198.578 58.1068 198.578 58.9922V64.2891C198.594 64.6953 198.745 64.9453 199.031 65.0391C199.109 65.0651 199.206 65.0885 199.32 65.1094C199.435 65.1302 199.536 65.1562 199.625 65.1875C199.719 65.2135 199.792 65.2448 199.844 65.2812C199.932 65.349 199.977 65.4583 199.977 65.6094C199.977 65.7917 199.935 65.9349 199.852 66.0391C199.747 66.013 199.581 66 199.352 66H196.859C196.359 66 196.039 65.9115 195.898 65.7344C195.841 65.6667 195.812 65.5885 195.812 65.5C195.812 65.2812 195.854 65.1198 195.938 65.0156C196.062 65.0573 196.177 65.0781 196.281 65.0781C196.391 65.0781 196.482 65.0651 196.555 65.0391C196.628 65.0078 196.685 64.9583 196.727 64.8906C196.799 64.7656 196.836 64.5208 196.836 64.1562V59.5469C196.836 58.6615 196.573 58.1667 196.047 58.0625C195.885 58.0312 195.682 58.0156 195.438 58.0156C195.198 58.0156 194.932 58.0521 194.641 58.125C194.349 58.1979 194.076 58.2917 193.82 58.4062C193.331 58.625 192.919 58.901 192.586 59.2344V64.2891C192.602 64.6953 192.75 64.9453 193.031 65.0391C193.115 65.0651 193.211 65.0885 193.32 65.1094C193.435 65.1302 193.539 65.1562 193.633 65.1875C193.727 65.2135 193.799 65.2448 193.852 65.2812C193.94 65.349 193.984 65.4583 193.984 65.6094C193.984 65.7917 193.943 65.9349 193.859 66.0391ZM204.164 62.8828C203.966 63.0807 203.867 63.2734 203.867 63.4609C203.867 63.6484 203.922 63.7917 204.031 63.8906C204.141 63.9844 204.284 64.0573 204.461 64.1094C204.732 64.1823 205.031 64.2188 205.359 64.2188H206.031C207.729 64.2188 208.846 64.625 209.383 65.4375C209.581 65.7396 209.68 66.1068 209.68 66.5391C209.68 66.9766 209.607 67.3594 209.461 67.6875C209.315 68.0156 209.12 68.3047 208.875 68.5547C208.63 68.8099 208.346 69.0286 208.023 69.2109C207.701 69.3932 207.359 69.5417 207 69.6562C206.297 69.8906 205.641 70.0078 205.031 70.0078C204.422 70.0078 203.888 69.9583 203.43 69.8594C202.977 69.7656 202.573 69.6172 202.219 69.4141C201.453 68.9714 201.07 68.3359 201.07 67.5078C201.07 66.8047 201.422 66.1745 202.125 65.6172C202.339 65.4505 202.565 65.3021 202.805 65.1719C202.523 64.9375 202.383 64.6224 202.383 64.2266C202.383 63.6068 202.69 63.0859 203.305 62.6641C202.404 62.3203 201.812 61.7057 201.531 60.8203C201.443 60.5286 201.398 60.2031 201.398 59.8438C201.398 59.4844 201.453 59.1458 201.562 58.8281C201.677 58.5104 201.831 58.2266 202.023 57.9766C202.221 57.7266 202.451 57.5078 202.711 57.3203C202.971 57.1328 203.25 56.9766 203.547 56.8516C204.13 56.6016 204.742 56.4766 205.383 56.4766C206.44 56.4766 207.284 56.7422 207.914 57.2734C207.982 57.013 208.016 56.7448 208.016 56.4688C208.016 56.1927 207.956 55.9688 207.836 55.7969C208.039 55.5573 208.341 55.4375 208.742 55.4375C208.971 55.4375 209.154 55.5 209.289 55.625C209.549 55.849 209.68 56.0729 209.68 56.2969C209.68 56.5156 209.646 56.7083 209.578 56.875C209.51 57.0365 209.422 57.1901 209.312 57.3359C209.12 57.6068 208.87 57.8516 208.562 58.0703C208.771 58.4609 208.875 58.9141 208.875 59.4297C208.875 59.9401 208.76 60.4167 208.531 60.8594C208.307 61.2969 208.005 61.6693 207.625 61.9766C206.844 62.6068 205.88 62.9219 204.734 62.9219C204.578 62.9219 204.388 62.9089 204.164 62.8828ZM203.781 61.2188C203.969 61.401 204.182 61.5365 204.422 61.625C204.661 61.7135 204.917 61.7578 205.188 61.7578C205.464 61.7578 205.721 61.7188 205.961 61.6406C206.206 61.5625 206.417 61.4479 206.594 61.2969C206.974 60.974 207.164 60.5156 207.164 59.9219C207.164 59.2656 206.995 58.7188 206.656 58.2812C206.271 57.7969 205.729 57.5547 205.031 57.5547C204.151 57.5547 203.581 57.9141 203.32 58.6328C203.232 58.8776 203.188 59.1797 203.188 59.5391C203.188 59.8984 203.24 60.2214 203.344 60.5078C203.453 60.7943 203.599 61.0312 203.781 61.2188ZM203.789 65.6328C203.107 66.0964 202.766 66.6224 202.766 67.2109C202.766 67.7214 203.062 68.1094 203.656 68.375C204.13 68.5938 204.714 68.7031 205.406 68.7031C206.036 68.7031 206.62 68.599 207.156 68.3906C207.859 68.1146 208.211 67.6641 208.211 67.0391C208.211 66.2005 207.531 65.7812 206.172 65.7812L205.477 65.7891C204.768 65.7891 204.206 65.737 203.789 65.6328Z" fill="#0099FF"/>
<path d="M5.44 48V3.2H14.4V48H5.44ZM59.2365 48H49.3805L39.7805 31.104H34.2125V48H25.2525V3.2H49.5085L56.9325 7.488V26.816L49.5085 31.104L59.2365 48ZM34.2125 10.88V23.424H47.9725V10.88H34.2125ZM88.551 3.2L104.551 48H95.719L92.327 38.336H75.559L72.167 48H63.335L79.335 3.2H88.551ZM83.879 14.464L78.247 30.656H89.575L84.007 14.464H83.879Z" fill="#00609F"/>
<path d="M142.62 21.568L137.052 24.768V24.896L142.62 28.096V43.712L135.196 48H110.94V3.2H135.196L142.62 7.488V21.568ZM119.9 28.672V40.32H133.66V28.672H119.9ZM119.9 10.88V20.992H133.66V10.88H119.9ZM188.383 44.032L180.958 48.32H160.927L153.503 44.032V7.168L160.927 2.88H180.958L188.383 7.168V44.032ZM162.463 10.56V40.64H179.423V10.56H162.463ZM216.469 10.88V48H207.509V10.88H195.413V3.2H228.565V10.88H216.469Z" fill="#0088E2"/>
</svg>
